<svg width="100" height="100" viewBox="0 0 100 100" fill="none" xmlns="http://www.w3.org/2000/svg">
<path d="M100 50C100 77.6139 77.6139 100 50 100C22.3861 100 0 77.6139 0 50C0 22.3861 22.3861 -4.76837e-06 50 -4.76837e-06C77.6139 -4.76837e-06 100 22.3861 100 50Z" fill="#CCD6DD"/>
<path d="M36.1111 20.8333C36.1111 26.2028 31.7611 30.5556 26.3889 30.5556C21.0167 30.5556 16.6667 26.2028 16.6667 20.8333C16.6667 15.4639 21.0167 11.1111 26.3889 11.1111C31.7611 11.1111 36.1111 15.4639 36.1111 20.8333Z" fill="#B8C5CD"/>
<path d="M77.7778 79.1667C77.7778 84.5389 73.4278 88.8889 68.0556 88.8889C62.6833 88.8889 58.3333 84.5389 58.3333 79.1667C58.3333 73.7944 62.6833 69.4444 68.0556 69.4444C73.4278 69.4444 77.7778 73.7944 77.7778 79.1667Z" fill="#B8C5CD"/>
<path d="M66.6667 13.8889C66.6667 16.9556 64.1778 19.4444 61.1111 19.4444C58.0444 19.4444 55.5555 16.9556 55.5555 13.8889C55.5555 10.8222 58.0444 8.33333 61.1111 8.33333C64.1778 8.33333 66.6667 10.8222 66.6667 13.8889Z" fill="#B8C5CD"/>
<path d="M5.55554 50C5.55554 51.5361 6.79999 52.7778 8.33332 52.7778C9.86665 52.7778 11.1111 51.5361 11.1111 50C11.1111 48.4667 9.86665 47.2222 8.33332 47.2222C6.79999 47.2222 5.55554 48.4667 5.55554 50Z" fill="#B8C5CD"/>
<path d="M80.5555 25C80.5555 26.5361 81.7972 27.7778 83.3333 27.7778C84.8694 27.7778 86.1111 26.5361 86.1111 25C86.1111 23.4667 84.8694 22.2222 83.3333 22.2222C81.7972 22.2222 80.5555 23.4667 80.5555 25Z" fill="#B8C5CD"/>
<path d="M41.6667 86.1111C41.6667 87.6472 42.9083 88.8889 44.4444 88.8889C45.9805 88.8889 47.2222 87.6472 47.2222 86.1111C47.2222 84.575 45.9805 83.3333 44.4444 83.3333C42.9083 83.3333 41.6667 84.575 41.6667 86.1111Z" fill="#B8C5CD"/>
<path d="M94.4445 52.7778C94.4445 55.8444 91.9556 58.3333 88.8889 58.3333C85.8222 58.3333 83.3333 55.8444 83.3333 52.7778C83.3333 49.7111 85.8222 47.2222 88.8889 47.2222C91.9556 47.2222 94.4445 49.7111 94.4445 52.7778Z" fill="#B8C5CD"/>
<path d="M22.2222 72.2222C22.2222 75.2889 19.7333 77.7778 16.6667 77.7778C13.6 77.7778 11.1111 75.2889 11.1111 72.2222C11.1111 69.1556 13.6 66.6667 16.6667 66.6667C19.7333 66.6667 22.2222 69.1556 22.2222 72.2222Z" fill="#B8C5CD"/>
<path d="M50 69.1786C30.5556 69.1786 25 61.9064 25 65.3425C25 68.7814 36.1111 77.7786 50 77.7786C63.8889 77.7786 75 68.7814 75 65.3425C75 61.9064 69.4444 69.1786 50 69.1786Z" fill="#99AAB5"/>
<path d="M75 41.6667C75 46.2694 71.2667 50 66.6667 50C62.0667 50 58.3333 46.2694 58.3333 41.6667C58.3333 37.0639 62.0667 33.3333 66.6667 33.3333C71.2667 33.3333 75 37.0639 75 41.6667Z" fill="#99AAB5"/>
<path d="M41.6667 41.6667C41.6667 46.2694 37.9333 50 33.3333 50C28.7333 50 25 46.2694 25 41.6667C25 37.0639 28.7333 33.3333 33.3333 33.3333C37.9333 33.3333 41.6667 37.0639 41.6667 41.6667Z" fill="#99AAB5"/>
</svg>
