<svg width="100" height="100" viewBox="0 0 100 100" fill="none" xmlns="http://www.w3.org/2000/svg">
<path d="M50 100C48.9045 100 47.9073 99.3876 47.4129 98.4129L42.3567 88.4298L33.8624 95.7219C33.3258 96.1742 32.6545 96.4157 31.9747 96.4157C31.6011 96.4157 31.2247 96.3427 30.868 96.1966C29.8596 95.7781 29.1657 94.8258 29.0871 93.7416L28.2331 82.5758L17.5927 86.0618C17.2978 86.1573 16.9944 86.2051 16.691 86.2051C15.9354 86.2051 15.1966 85.9073 14.6404 85.3539C13.8708 84.5871 13.5983 83.441 13.9382 82.4017L17.4213 71.7612L6.26404 70.9157C5.17416 70.8286 4.22472 70.1433 3.80618 69.1376C3.39045 68.1208 3.57303 66.9663 4.28371 66.1376L11.5702 57.6433L1.58989 52.5871C0.61236 52.0927 0 51.0899 0 50C0 48.9101 0.61236 47.9101 1.58989 47.4129L11.5702 42.3567L4.28371 33.8652C3.57584 33.0337 3.39045 31.8764 3.80618 30.868C4.22472 29.8595 5.17416 29.1685 6.26404 29.0871L17.4213 28.2331L13.9382 17.5955C13.5983 16.5562 13.8708 15.4157 14.6404 14.6404C15.1966 14.0899 15.9354 13.7949 16.691 13.7949C16.9944 13.7949 17.2978 13.8427 17.5927 13.9382L28.2331 17.4213L29.0871 6.26404C29.1657 5.17415 29.8596 4.22471 30.868 3.80618C31.2247 3.66011 31.6011 3.58707 31.9747 3.58707C32.6545 3.58707 33.3258 3.82583 33.8624 4.2837L42.3567 11.573L47.4129 1.58988C47.9073 0.615159 48.9045 -3.70085e-06 50 -3.70085e-06C51.0899 -3.70085e-06 52.0927 0.615161 52.5843 1.58707L57.6461 11.573L66.1405 4.2837C66.677 3.82583 67.3511 3.58707 68.0253 3.58707C68.4045 3.58707 68.7781 3.66011 69.1376 3.80618C70.1461 4.22471 70.8315 5.17696 70.9185 6.26404L71.7697 17.4213L82.4017 13.9382C82.6994 13.8427 83.0056 13.7949 83.3034 13.7949C84.0618 13.7949 84.8062 14.0899 85.3539 14.6404C86.1292 15.4157 86.4017 16.5562 86.0618 17.5955L82.5758 28.2331L93.7416 29.0871C94.8258 29.1685 95.7781 29.8595 96.1938 30.868C96.6124 31.8764 96.4298 33.0337 95.7191 33.8652L88.4298 42.3567L98.4101 47.4129C99.3876 47.9101 100 48.9101 100 50C100 51.0899 99.3876 52.0899 98.4101 52.5871L88.4298 57.6433L95.7191 66.1376C96.4298 66.9663 96.6124 68.1208 96.1938 69.1376C95.7781 70.1433 94.8258 70.8286 93.7332 70.9157L82.5758 71.7612L86.0618 82.4017C86.4017 83.4438 86.1292 84.5871 85.3539 85.3539C84.8062 85.9073 84.0618 86.2051 83.3034 86.2051C83.0056 86.2051 82.6994 86.1573 82.4017 86.0618L71.7697 82.5758L70.9185 93.736C70.8315 94.8258 70.1461 95.7781 69.1376 96.1966C68.7781 96.3427 68.4045 96.4157 68.0253 96.4157C67.3511 96.4157 66.677 96.1742 66.1405 95.7219L57.6461 88.4298L52.5843 98.4129C52.0927 99.3876 51.0899 100 50 100Z" fill="#F4900C"/>
<path d="M86.5169 50.002C86.5169 70.1677 70.1657 86.5188 50 86.5188C29.8343 86.5188 13.4832 70.1677 13.4832 50.002C13.4832 29.8335 29.8343 13.4851 50 13.4851C70.1657 13.4851 86.5169 29.8335 86.5169 50.002Z" fill="#FFCC4D"/>
<path d="M50 65.3677C32.5225 65.3677 27.5281 58.8284 27.5281 61.9154C27.5281 65.011 37.5168 73.098 50 73.098C62.4831 73.098 72.4719 65.011 72.4719 61.9154C72.4719 58.8284 67.4803 65.3677 50 65.3677Z" fill="#F4900C"/>
<path d="M72.4719 40.6368C72.4719 44.7744 69.118 48.1283 64.9803 48.1283C60.8455 48.1283 57.4916 44.7744 57.4916 40.6368C57.4916 36.4991 60.8455 33.1452 64.9803 33.1452C69.118 33.1452 72.4719 36.4991 72.4719 40.6368Z" fill="#F4900C"/>
<path d="M42.5098 40.6368C42.5098 44.7744 39.1531 48.1283 35.0183 48.1283C30.8834 48.1283 27.5295 44.7744 27.5295 40.6368C27.5295 36.4991 30.8834 33.1452 35.0183 33.1452C39.1531 33.1452 42.5098 36.4991 42.5098 40.6368Z" fill="#F4900C"/>
</svg>
