<svg width="100" height="100" viewBox="0 0 100 100" fill="none" xmlns="http://www.w3.org/2000/svg">
<rect width="100" height="100" fill="#292F36"/>
<path d="M23.792 40.992C24.384 40.992 25.064 41.048 25.832 41.16C26.6 41.256 27.304 41.368 27.944 41.496L27.896 43.296C26.088 42.944 24.72 42.768 23.792 42.768C22.688 42.768 21.896 42.992 21.416 43.44C20.952 43.872 20.72 44.6 20.72 45.624V52.584C20.72 53.608 20.952 54.352 21.416 54.816C21.896 55.264 22.688 55.488 23.792 55.488C24.512 55.488 25.448 55.376 26.6 55.152V49.848H23.6V47.928H28.64V56.4C26.72 56.992 25.104 57.288 23.792 57.288C21.952 57.288 20.64 56.896 19.856 56.112C19.072 55.328 18.68 54.104 18.68 52.44V45.84C18.68 44.144 19.08 42.912 19.88 42.144C20.68 41.376 21.984 40.992 23.792 40.992Z" fill="#D16F3E"/>
<path d="M37.2245 40.992C39.0165 40.992 40.3365 41.44 41.1845 42.336C42.0325 43.232 42.4565 44.504 42.4565 46.152V52.128C42.4565 54.176 41.6965 55.608 40.1765 56.424L42.9365 57.144L42.9845 59.04H42.5285L37.8245 57.264C37.7125 57.28 37.5205 57.288 37.2485 57.288C33.7445 57.288 31.9925 55.568 31.9925 52.128V46.152C31.9925 44.504 32.4165 43.232 33.2645 42.336C34.1125 41.44 35.4325 40.992 37.2245 40.992ZM37.2245 42.792C36.1685 42.792 35.3685 43.056 34.8245 43.584C34.2965 44.112 34.0325 44.888 34.0325 45.912V52.344C34.0325 53.368 34.3045 54.152 34.8485 54.696C35.3925 55.224 36.1925 55.488 37.2485 55.488C39.3605 55.488 40.4165 54.424 40.4165 52.296V45.936C40.4165 44.912 40.1445 44.136 39.6005 43.608C39.0725 43.064 38.2805 42.792 37.2245 42.792Z" fill="#D16F3E"/>
<path d="M47.9806 41.28V55.2H54.2206V57H45.9406V41.28H47.9806Z" fill="#D16F3E"/>
<path d="M67.0653 41.28V57H65.0253V49.8H58.7853V57H56.7453V41.28H58.7853V47.976H65.0253V41.28H67.0653Z" fill="#D16F3E"/>
<path d="M77.8672 57L72.6832 43.728V57H70.6672V41.28H73.9312L79.0192 54.552V41.28H81.0352V57H77.8672Z" fill="#D16F3E"/>
</svg>
